# xmcd
#
# Track frame offsets:
#	150
#	14625
#	27450
#	43550
#	56100
#	68200
#	82725
#	98525
#	113625
#	130325
#	147775
#	162850
#	177325
#	190175
#
# Disc length: 2706 seconds
# Revision: 5
# Processed by: cddbd v1.5.2PL0 Copyright (c) Steve Scherf et al.
# Submitted via: dBpowerAMP V12.0
#
DISCID=b70a900e,c10a900e
DTITLE=Rondò Veneziano - World of Rondò Classico 2
DYEAR=2005
DGENRE=Easy Listening
TTITLE0=Yellow River
TTITLE1=Mademoiselle Ninette
TTITLE2=Candida
TTITLE3=To Whom It Concerns
TTITLE4=Vienna Roundabout
TTITLE5=Dandy
TTITLE6=You'll Never Understand
TTITLE7=Is This the Way to Amarillo
TTITLE8=Dreams Are Ten a Penny
TTITLE9=Moondance
TTITLE10=Hands Up
TTITLE11=Golden Day
TTITLE12=Chirpy Chirpy Cheep Cheep
TTITLE13=San Bernadino
EXTD=
EXTT0=
EXTT1=
EXTT2=
EXTT3=
EXTT4=
EXTT5=
EXTT6=
EXTT7=
EXTT8=
EXTT9=
EXTT10=
EXTT11=
EXTT12=
EXTT13=
PLAYORDER=
